# xmcd
#
# Track frame offsets:
#	150
#	13050
#	28465
#	42631
#	55472
#	70496
#	88200
#	100732
#	115589
#	132828
#	150949
#	168177
#	182231
#	197913
#	211579
#	225482
#	239083
#	254359
#	265870
#	283270
#	299577
#	314763
#
# Disc length: 4382 seconds
#
# Revision: 0
# Processed by: cddbd v1.5.1PL0 Copyright (c) Steve Scherf et al.
# Submitted via: EasyCDDAExtractor 7.7.1.2
#
DISCID=52111c16
DTITLE=Vida De Caboclo - Modas De Viola - Vol 02
DYEAR=2004
DGENRE=Sertanejo
TTITLE0=Voda De Caboclo - Ataide and Alexandre
TTITLE1=Caboclo Da Cidade - Dino Franco and Nourai
TTITLE2=Um Berrante Na Solidão - Campanha and Cuiabano 
TTITLE3=Os Verdes Campos Da Minha Terra - Dartanhã and Delamônica
TTITLE4=Peito Sadio - Zé Carreiro and Carreirinho
TTITLE5=Tristeza Do Jeca - Tonico and Tinoco
TTITLE6=Vida No Campo - Pena Branca and Xavantinho
TTITLE7=Canoeiro - Zé Carreiro and Carreirinho 
TTITLE8=Cuoro De Boi - Palmeira and Biá
TTITLE9=A Sementinha - Biá and Dino Franco
TTITLE10=Porta Do Mundo - Peão Carreiro and Zé Paulo
TTITLE11=Irmãos De Sangue - Matogrosso and Mathias
TTITLE12=Peão Da Cidade - Sulino and Marrueiro
TTITLE13=Recordação - Nenete and Dorinho
TTITLE14=Encanto Da Natureza - Tião Carreiro and PArdinho
TTITLE15=Grileiro Da Terra - Delley and Dorival
TTITLE16=Poeira - Duo Glacial
TTITLE17=Amor De Peão - Juliano Cézar 
TTITLE18=Filho Adotivo - Sérgio Reis
TTITLE19=Berrante Da Saudade - Odair and Junior
TTITLE20=Herança Do Boi Soberano - Alex and Alexandre
TTITLE21=Irmão Do Ferreirinha - Igor and Iago
EXTD=
EXTT0=
EXTT1=
EXTT2=
EXTT3=
EXTT4=
EXTT5=
EXTT6=
EXTT7=
EXTT8=
EXTT9=
EXTT10=
EXTT11=
EXTT12=
EXTT13=
EXTT14=
EXTT15=
EXTT16=
EXTT17=
EXTT18=
EXTT19=
EXTT20=
EXTT21=
PLAYORDER=
